<mxfile host="app.diagrams.net" modified="2023-07-14T11:01:14.499Z" agent="Mozilla/5.0 (X11; Linux x86_64) AppleWebKit/537.36 (KHTML, like Gecko) Chrome/114.0.0.0 Safari/537.36" etag="85sfFtnLx0nAotquJfsh" version="21.6.2" type="github">
  <diagram name="Page-1" id="WcVR5jcd_hida1T18hmz">
    <mxGraphModel dx="1648" dy="1556" grid="1" gridSize="10" guides="1" tooltips="1" connect="1" arrows="1" fold="1" page="1" pageScale="1" pageWidth="827" pageHeight="1169" math="0" shadow="0">
      <root>
        <mxCell id="0" />
        <mxCell id="1" parent="0" />
        <mxCell id="cZO6KUv-QwZ8SxlWHh0F-1" style="edgeStyle=orthogonalEdgeStyle;rounded=0;orthogonalLoop=1;jettySize=auto;html=1;exitX=0.5;exitY=1;exitDx=0;exitDy=0;exitPerimeter=0;entryX=0.5;entryY=0;entryDx=0;entryDy=0;" parent="1" source="cZO6KUv-QwZ8SxlWHh0F-2" target="cZO6KUv-QwZ8SxlWHh0F-6" edge="1">
          <mxGeometry relative="1" as="geometry" />
        </mxCell>
        <mxCell id="cZO6KUv-QwZ8SxlWHh0F-2" value="&lt;br&gt;Vision DB" style="strokeWidth=1;html=1;shape=mxgraph.flowchart.database;whiteSpace=wrap;" parent="1" vertex="1">
          <mxGeometry x="205" y="-510" width="70" height="70" as="geometry" />
        </mxCell>
        <mxCell id="cZO6KUv-QwZ8SxlWHh0F-4" style="edgeStyle=orthogonalEdgeStyle;rounded=0;orthogonalLoop=1;jettySize=auto;html=1;exitX=1;exitY=0.5;exitDx=0;exitDy=0;entryX=0.5;entryY=0;entryDx=0;entryDy=0;dashed=1;" parent="1" source="cZO6KUv-QwZ8SxlWHh0F-5" target="cZO6KUv-QwZ8SxlWHh0F-6" edge="1">
          <mxGeometry relative="1" as="geometry">
            <mxPoint x="240" y="-240" as="targetPoint" />
          </mxGeometry>
        </mxCell>
        <mxCell id="cZO6KUv-QwZ8SxlWHh0F-5" value="Cron Job for get all uncopied suggestions" style="whiteSpace=wrap;html=1;dashed=1;rounded=1;" parent="1" vertex="1">
          <mxGeometry x="-60" y="-400" width="140" height="60" as="geometry" />
        </mxCell>
        <mxCell id="OdO4DzallfMRSqQVsOpH-1" style="edgeStyle=orthogonalEdgeStyle;rounded=0;orthogonalLoop=1;jettySize=auto;html=1;exitX=0.5;exitY=0;exitDx=0;exitDy=0;entryX=0.5;entryY=0;entryDx=0;entryDy=0;" edge="1" parent="1" source="cZO6KUv-QwZ8SxlWHh0F-6" target="cZO6KUv-QwZ8SxlWHh0F-7">
          <mxGeometry relative="1" as="geometry">
            <Array as="points">
              <mxPoint x="240" y="-290" />
              <mxPoint x="10" y="-290" />
            </Array>
          </mxGeometry>
        </mxCell>
        <mxCell id="cZO6KUv-QwZ8SxlWHh0F-6" value="Insert all pending suggestion on&amp;nbsp;live_txns_work" style="whiteSpace=wrap;html=1;strokeWidth=1;" parent="1" vertex="1">
          <mxGeometry x="170" y="-250" width="140" height="60" as="geometry" />
        </mxCell>
        <mxCell id="cZO6KUv-QwZ8SxlWHh0F-7" value="Update detection table is_copied as true for copied suggestions" style="rounded=1;whiteSpace=wrap;html=1;" parent="1" vertex="1">
          <mxGeometry x="-60" y="-250" width="140" height="60" as="geometry" />
        </mxCell>
      </root>
    </mxGraphModel>
  </diagram>
</mxfile>
